<?xml version="1.0" standalone="no"?>
<!DOCTYPE svg PUBLIC "-//W3C//DTD SVG 20010904//EN"
 "http://www.w3.org/TR/2001/REC-SVG-20010904/DTD/svg10.dtd">
<svg version="1.0" xmlns="http://www.w3.org/2000/svg"
 width="1458.000000pt" height="344.000000pt" viewBox="0 0 1458.000000 344.000000"
 preserveAspectRatio="xMidYMid meet">
<metadata>
Created by potrace 1.14, written by Peter Selinger 2001-2017
</metadata>
<g transform="translate(0.000000,344.000000) scale(0.100000,-0.100000)"
fill="#000000" stroke="none">
<path d="M5895 3009 c-423 -3 -782 -7 -797 -8 -26 -1 -28 -4 -28 -46 l0 -45
288 0 c159 0 607 3 995 7 l707 6 0 49 0 48 -197 -2 c-109 -1 -544 -5 -968 -9z"/>
<path d="M8430 3009 c-426 -3 -848 -7 -937 -8 l-163 -1 0 -47 0 -46 578 6
c317 4 765 7 995 7 l417 0 0 50 0 50 -57 -2 c-32 -1 -407 -5 -833 -9z"/>
<path d="M10370 3009 c-426 -3 -776 -7 -777 -8 -2 0 -3 -21 -3 -46 l0 -45 318
0 c175 0 623 3 995 7 l677 6 0 49 0 48 -217 -2 c-120 -1 -567 -5 -993 -9z"/>
<path d="M12820 3009 c-426 -3 -819 -7 -872 -8 l-98 -1 0 -47 0 -46 677 6
c372 4 820 7 995 7 l318 0 0 50 0 50 -122 -2 c-68 -1 -472 -5 -898 -9z"/>
<path d="M3520 2730 c-44 -44 -13 -130 48 -130 35 0 48 9 61 42 11 30 -1 87
-21 100 -23 14 -68 8 -88 -12z"/>
<path d="M3660 2675 l0 -75 40 0 c51 0 80 27 80 75 0 48 -29 75 -80 75 l-40 0
0 -75z"/>
<path d="M5620 2635 l0 -75 40 0 c51 0 80 27 80 75 0 48 -29 75 -80 75 l-40 0
0 -75z"/>
<path d="M8233 2069 c-59 -10 -160 -46 -168 -60 -4 -5 -37 -9 -76 -9 l-69 0 0
-61 c0 -48 -5 -68 -25 -97 -14 -20 -35 -66 -46 -102 -41 -127 -21 -305 46
-402 17 -25 25 -51 25 -77 0 -40 1 -41 35 -41 23 0 54 -13 94 -38 154 -100
368 -100 522 0 40 25 71 38 94 38 34 0 35 1 35 41 0 26 8 52 25 77 14 20 35
66 46 102 41 127 21 305 -46 402 -20 29 -25 49 -25 97 l0 61 -67 0 c-45 1 -75
6 -88 16 -54 41 -220 69 -312 53z m387 -374 c0 -184 0 -186 -25 -210 -22 -23
-32 -25 -115 -25 -83 0 -93 2 -115 25 -23 22 -25 31 -25 125 0 94 2 103 25
125 22 23 32 25 110 25 l85 0 0 53 c0 60 4 67 37 67 l23 0 0 -185z m-701 -107
l-1 -223 -26 55 c-24 50 -27 66 -27 170 0 100 3 122 24 168 13 28 25 52 27 52
2 0 4 -100 3 -222z m836 2 c0 -104 -3 -120 -27 -170 l-26 -55 0 225 0 225 26
-55 c24 -50 27 -66 27 -170z m-500 145 c23 -22 25 -31 25 -125 0 -94 -2 -103
-25 -125 -22 -23 -32 -25 -110 -25 l-85 0 0 -60 0 -60 -30 0 -30 0 0 185 c0
184 0 186 25 210 22 23 32 25 115 25 83 0 93 -2 115 -25z m245 -553 c-73 -36
-78 -37 -190 -37 -112 0 -117 1 -190 37 l-75 36 265 0 265 0 -75 -36z"/>
<path d="M8404 1687 c-3 -8 -4 -47 -2 -88 l3 -74 75 0 75 0 3 88 3 87 -76 0
c-54 0 -77 -4 -81 -13z"/>
<path d="M8067 1694 c-4 -4 -7 -45 -7 -91 l0 -84 78 3 77 3 0 85 0 85 -70 3
c-39 1 -74 0 -78 -4z"/>
<path d="M5975 2010 c-241 -42 -408 -239 -408 -480 0 -272 211 -482 483 -482
272 0 483 210 483 482 0 257 -188 460 -448 483 -33 3 -82 1 -110 -3z m266 -71
c99 -48 170 -118 218 -218 35 -74 36 -80 36 -191 0 -111 -1 -117 -36 -191 -48
-99 -119 -170 -218 -218 -74 -35 -80 -36 -191 -36 -111 0 -117 1 -191 36 -99
48 -170 119 -218 218 -35 74 -36 80 -36 191 0 111 1 117 36 191 57 119 153
202 284 245 25 9 77 13 140 11 91 -2 107 -5 176 -38z"/>
<path d="M10515 2010 c-241 -42 -408 -239 -408 -480 0 -272 211 -482 483 -482
272 0 483 210 483 482 0 257 -188 460 -448 483 -33 3 -82 1 -110 -3z m266 -71
c99 -48 170 -118 218 -218 35 -74 36 -80 36 -191 0 -111 -1 -117 -36 -191 -48
-99 -119 -170 -218 -218 -74 -35 -80 -36 -191 -36 -111 0 -117 1 -191 36 -99
48 -170 119 -218 218 -35 74 -36 80 -36 191 0 111 1 117 36 191 57 119 153
202 284 245 25 9 77 13 140 11 91 -2 107 -5 176 -38z"/>
<path d="M10512 1819 c-40 -26 -62 -66 -62 -114 0 -38 27 -95 45 -95 8 0 31
29 66 81 5 9 89 33 136 41 21 3 22 4 6 35 -33 69 -126 93 -191 52z"/>
<path d="M12775 1990 c-241 -42 -408 -239 -408 -480 0 -272 211 -482 483 -482
272 0 483 210 483 482 0 257 -188 460 -448 483 -33 3 -82 1 -110 -3z m266 -71
c99 -48 170 -118 218 -218 35 -74 36 -80 36 -191 0 -111 -1 -117 -36 -191 -48
-99 -119 -170 -218 -218 -74 -35 -80 -36 -191 -36 -111 0 -117 1 -191 36 -99
48 -170 119 -218 218 -35 74 -36 80 -36 191 0 111 1 117 36 191 57 119 153
202 284 245 25 9 77 13 140 11 91 -2 107 -5 176 -38z"/>
<path d="M12908 1773 c-53 -16 -54 -18 -34 -83 15 -50 31 -55 98 -27 l36 15
-17 53 c-10 29 -22 54 -27 55 -5 1 -30 -5 -56 -13z"/>
<path d="M12640 1688 c-56 -15 -56 -14 -15 -125 3 -9 16 -8 52 4 26 9 52 19
57 23 4 5 1 31 -9 59 -18 55 -23 57 -85 39z"/>
<path d="M13015 1519 c-66 -22 -158 -51 -205 -66 -170 -52 -240 -83 -246 -110
-8 -32 9 -69 36 -78 28 -9 108 13 365 100 216 73 245 88 245 127 0 22 -43 68
-62 67 -7 0 -67 -18 -133 -40z"/>
<path d="M1315 1950 c-241 -42 -408 -239 -408 -480 0 -272 211 -482 483 -482
272 0 483 210 483 482 0 257 -188 460 -448 483 -33 3 -82 1 -110 -3z m266 -71
c99 -48 170 -118 218 -218 35 -74 36 -80 36 -191 0 -111 -1 -117 -36 -191 -48
-99 -119 -170 -218 -218 -74 -35 -80 -36 -191 -36 -111 0 -117 1 -191 36 -48
23 -94 55 -129 89 -34 35 -66 81 -89 129 -35 74 -36 80 -36 191 0 111 1 117
36 191 57 119 153 202 284 245 25 9 77 13 140 11 91 -2 107 -5 176 -38z"/>
<path d="M1166 1814 c-4 -20 -4 -49 -1 -65 4 -17 2 -29 -3 -29 -37 0 -42 -195
-6 -243 24 -33 103 -77 138 -77 24 0 25 -2 14 -27 -7 -16 -18 -33 -25 -39 -22
-19 -66 -7 -95 25 -28 31 -66 56 -75 48 -2 -3 7 -18 20 -34 14 -15 34 -39 45
-52 14 -18 33 -26 68 -30 l49 -6 -2 -49 c-2 -27 -9 -57 -18 -66 -20 -22 -19
-30 3 -30 22 1 52 24 52 41 0 12 2 12 9 0 6 -9 6 -24 0 -38 -12 -32 -12 -33 9
-33 9 0 26 11 37 23 l20 24 18 -24 c35 -44 43 -30 41 80 0 60 1 74 3 32 3 -52
9 -74 23 -87 34 -32 71 -13 38 20 -6 6 -15 49 -19 94 -3 46 -10 93 -14 106 -6
19 -4 22 21 23 38 1 102 37 128 72 18 24 21 43 21 122 0 74 -3 97 -17 112 -12
13 -18 36 -18 64 0 25 -6 54 -14 64 -13 18 -15 18 -68 -7 -49 -23 -59 -25
-101 -15 -35 8 -60 7 -101 -3 -47 -11 -57 -11 -77 4 -13 9 -31 16 -41 16 -10
0 -18 5 -18 10 0 6 -8 10 -19 10 -14 0 -21 -10 -25 -36z m409 -209 c35 -36 36
-111 1 -152 -24 -28 -26 -28 -150 -31 -112 -3 -131 -1 -170 18 -46 22 -56 39
-56 102 0 27 7 44 25 63 25 25 29 25 175 25 146 0 150 0 175 -25z"/>
<path d="M3565 1950 c-246 -40 -418 -237 -418 -480 0 -168 78 -312 216 -401
171 -111 383 -111 554 0 153 98 240 292 213 469 -13 81 -64 191 -116 251 -102
118 -294 186 -449 161z m214 -49 c33 -10 80 -30 103 -44 65 -38 145 -128 181
-204 30 -64 32 -74 32 -183 0 -109 -2 -119 -32 -183 -36 -76 -116 -166 -181
-204 -142 -84 -342 -84 -484 0 -65 38 -145 128 -181 204 -30 64 -32 74 -32
183 0 109 2 119 32 183 36 76 116 166 181 204 107 63 262 81 381 44z"/>
<path d="M3420 1821 c-6 -16 -9 -43 -5 -59 4 -21 0 -41 -14 -66 -37 -65 -24
-169 28 -229 21 -24 88 -57 118 -57 13 0 23 -2 23 -3 0 -10 -32 -67 -38 -68
-48 -6 -56 -3 -104 44 -30 29 -54 45 -56 38 -4 -13 -1 -18 61 -83 30 -32 41
-38 77 -38 l43 0 -7 -52 c-4 -29 -14 -57 -22 -61 -8 -4 -14 -12 -14 -17 0 -17
39 -11 59 9 24 24 33 17 20 -16 -12 -32 -12 -33 10 -33 11 0 29 12 40 26 12
15 21 21 21 15 0 -17 25 -41 42 -41 11 0 13 21 12 98 0 54 1 68 3 32 4 -68 22
-100 55 -100 21 0 23 13 4 29 -9 8 -15 41 -18 99 -3 48 -8 95 -12 105 -7 14
-3 17 17 17 27 0 79 25 106 50 39 37 69 188 41 205 -5 3 -10 14 -10 24 0 10
-7 24 -15 31 -8 7 -15 29 -15 49 0 82 -15 95 -73 64 -50 -26 -258 -28 -304 -2
-46 26 -59 24 -73 -10z m404 -212 c37 -43 36 -98 -3 -141 -29 -33 -30 -33
-136 -36 -135 -5 -167 1 -205 39 -42 42 -42 98 -1 140 l29 29 145 0 145 0 26
-31z"/>
</g>
</svg>
